<svg width="1325" height="501" viewBox="0 0 1325 501" fill="none" xmlns="http://www.w3.org/2000/svg">
<g clip-path="url(#clip0_2015_8)">
<rect width="1325" height="501" rx="30" fill="#000D09"/>
<g filter="url(#filter0_f_2015_8)">
<ellipse cx="1464.5" cy="767.5" rx="298.5" ry="266.5" fill="#23C877"/>
</g>
<g filter="url(#filter1_f_2015_8)">
<ellipse cx="209.5" cy="-222.5" rx="298.5" ry="266.5" fill="#23C877"/>
</g>
<path d="M355.557 291V207.188H409.676V218.802H369.925V242.868H406.084V254.243H369.925V279.386H409.676V291H355.557ZM424.301 291V231.015H436.992L438.07 239.276C439.986 236.243 442.54 233.888 445.733 232.212C448.926 230.456 452.557 229.578 456.628 229.578C459.661 229.578 462.375 229.977 464.77 230.775C467.244 231.573 469.439 232.771 471.355 234.367C473.271 235.964 474.827 237.959 476.025 240.354C478.26 237.001 481.173 234.367 484.765 232.451C488.357 230.536 492.268 229.578 496.499 229.578C501.607 229.578 505.918 230.616 509.43 232.691C512.942 234.686 515.616 237.68 517.452 241.671C519.288 245.662 520.205 250.571 520.205 256.398V291H505.957V257.834C505.957 252.646 504.92 248.695 502.844 245.981C500.769 243.187 497.696 241.791 493.625 241.791C490.831 241.791 488.357 242.509 486.202 243.946C484.047 245.303 482.37 247.298 481.173 249.932C479.976 252.566 479.377 255.759 479.377 259.511V291H465.129V257.834C465.129 252.646 464.092 248.695 462.016 245.981C459.941 243.187 456.788 241.791 452.557 241.791C449.923 241.791 447.529 242.509 445.374 243.946C443.298 245.303 441.662 247.298 440.465 249.932C439.267 252.566 438.669 255.759 438.669 259.511V291H424.301ZM535.263 317.341V231.015H548.074L549.63 239.755C550.907 237.999 552.424 236.363 554.18 234.846C556.016 233.25 558.211 231.973 560.765 231.015C563.32 230.057 566.313 229.578 569.745 229.578C575.412 229.578 580.401 230.975 584.712 233.769C589.102 236.482 592.534 240.234 595.008 245.023C597.563 249.733 598.84 255.121 598.84 261.187C598.84 267.174 597.563 272.522 595.008 277.231C592.454 281.94 588.982 285.652 584.592 288.366C580.281 291.08 575.333 292.437 569.745 292.437C565.195 292.437 561.204 291.599 557.772 289.922C554.34 288.166 551.626 285.692 549.63 282.499V317.341H535.263ZM566.752 279.985C570.104 279.985 573.098 279.187 575.732 277.59C578.366 275.994 580.441 273.799 581.958 271.005C583.474 268.131 584.233 264.819 584.233 261.067C584.233 257.316 583.474 254.043 581.958 251.249C580.441 248.376 578.366 246.141 575.732 244.544C573.098 242.948 570.104 242.15 566.752 242.15C563.32 242.15 560.286 242.948 557.652 244.544C555.018 246.141 552.983 248.376 551.546 251.249C550.109 254.043 549.391 257.316 549.391 261.067C549.391 264.739 550.109 268.012 551.546 270.885C552.983 273.759 555.018 275.994 557.652 277.59C560.286 279.187 563.32 279.985 566.752 279.985ZM613.382 291V231.015H627.75V291H613.382ZM620.566 221.317C617.932 221.317 615.737 220.518 613.981 218.922C612.305 217.246 611.467 215.21 611.467 212.816C611.467 210.341 612.305 208.346 613.981 206.829C615.737 205.233 617.932 204.434 620.566 204.434C623.2 204.434 625.356 205.233 627.032 206.829C628.788 208.346 629.666 210.341 629.666 212.816C629.666 215.21 628.788 217.246 627.032 218.922C625.356 220.518 623.2 221.317 620.566 221.317ZM644.237 291V231.015H657.048L658.365 242.269C659.802 239.635 661.558 237.4 663.633 235.564C665.788 233.649 668.263 232.172 671.056 231.134C673.93 230.097 677.123 229.578 680.635 229.578V244.784H676.085C673.611 244.784 671.296 245.103 669.141 245.742C666.985 246.3 665.11 247.258 663.513 248.615C661.917 249.892 660.68 251.688 659.802 254.003C659.003 256.318 658.604 259.191 658.604 262.624V291H644.237ZM718.328 292.437C712.421 292.437 707.153 291.16 702.523 288.605C697.973 285.971 694.381 282.339 691.747 277.71C689.193 273 687.916 267.573 687.916 261.426C687.916 255.121 689.193 249.613 691.747 244.904C694.302 240.114 697.854 236.363 702.403 233.649C707.033 230.935 712.381 229.578 718.447 229.578C724.354 229.578 729.503 230.895 733.893 233.529C738.283 236.163 741.675 239.675 744.07 244.065C746.544 248.456 747.782 253.365 747.782 258.792C747.782 259.591 747.742 260.469 747.662 261.426C747.662 262.384 747.622 263.422 747.542 264.539H698.333V255.2H733.294C733.055 250.97 731.538 247.617 728.744 245.143C726.03 242.589 722.598 241.312 718.447 241.312C715.494 241.312 712.74 241.99 710.186 243.347C707.712 244.704 705.716 246.699 704.199 249.334C702.763 251.968 702.044 255.28 702.044 259.271V262.743C702.044 266.495 702.763 269.728 704.199 272.442C705.636 275.076 707.552 277.111 709.947 278.548C712.421 279.905 715.175 280.583 718.208 280.583C721.56 280.583 724.314 279.865 726.469 278.428C728.704 276.991 730.381 275.076 731.498 272.681H745.986C744.948 276.353 743.112 279.705 740.478 282.739C737.924 285.692 734.771 288.047 731.019 289.803C727.347 291.559 723.117 292.437 718.328 292.437ZM781.402 291V215.45H756.378V207.188H816.483V215.45H791.459V291H781.402ZM821.5 291V231.015H830.6L831.438 242.509C832.715 239.795 834.391 237.48 836.467 235.564C838.622 233.649 841.176 232.172 844.13 231.134C847.083 230.097 850.435 229.578 854.187 229.578V240.114H850.954C848.32 240.114 845.806 240.473 843.411 241.192C841.096 241.83 839.021 242.908 837.185 244.425C835.429 245.941 834.032 248.017 832.995 250.651C832.037 253.205 831.558 256.438 831.558 260.349V291H821.5ZM885.22 292.437C880.271 292.437 876.16 291.599 872.887 289.922C869.695 288.246 867.3 286.011 865.704 283.217C864.107 280.344 863.309 277.231 863.309 273.878C863.309 269.808 864.347 266.375 866.422 263.582C868.577 260.788 871.57 258.673 875.402 257.236C879.313 255.719 883.863 254.961 889.051 254.961H905.095C905.095 251.209 904.496 248.096 903.299 245.622C902.182 243.147 900.505 241.272 898.27 239.995C896.035 238.717 893.322 238.079 890.129 238.079C886.297 238.079 882.945 239.077 880.071 241.072C877.278 242.988 875.561 245.782 874.923 249.453H864.626C865.105 245.223 866.542 241.631 868.936 238.678C871.411 235.724 874.524 233.489 878.275 231.973C882.027 230.376 885.978 229.578 890.129 229.578C895.636 229.578 900.226 230.616 903.898 232.691C907.649 234.686 910.443 237.52 912.279 241.192C914.195 244.784 915.153 249.054 915.153 254.003V291H906.173L905.574 280.344C904.776 282.02 903.738 283.617 902.461 285.133C901.264 286.57 899.827 287.847 898.151 288.965C896.554 290.002 894.679 290.84 892.523 291.479C890.368 292.117 887.934 292.437 885.22 292.437ZM886.776 283.936C889.65 283.936 892.204 283.377 894.439 282.26C896.674 281.062 898.59 279.466 900.186 277.47C901.862 275.475 903.1 273.24 903.898 270.765C904.696 268.211 905.095 265.617 905.095 262.983V262.743H889.889C886.058 262.743 882.945 263.222 880.55 264.18C878.156 265.058 876.439 266.295 875.402 267.892C874.364 269.488 873.845 271.324 873.845 273.4C873.845 275.555 874.324 277.43 875.282 279.027C876.32 280.623 877.796 281.861 879.712 282.739C881.628 283.537 883.983 283.936 886.776 283.936ZM957.294 292.437C951.467 292.437 946.319 291.08 941.849 288.366C937.459 285.572 934.026 281.821 931.552 277.111C929.157 272.322 927.96 266.934 927.96 260.947C927.96 254.881 929.157 249.493 931.552 244.784C934.026 240.074 937.499 236.363 941.969 233.649C946.438 230.935 951.587 229.578 957.414 229.578C962.283 229.578 966.593 230.576 970.345 232.571C974.096 234.567 976.97 237.36 978.965 240.952V204.794H989.023V291H979.923L979.085 281.182C977.808 283.098 976.172 284.934 974.176 286.69C972.181 288.366 969.786 289.763 966.992 290.88C964.199 291.918 960.966 292.437 957.294 292.437ZM958.372 283.696C962.363 283.696 965.875 282.778 968.908 280.943C972.021 279.027 974.416 276.393 976.092 273.04C977.768 269.608 978.606 265.617 978.606 261.067C978.606 256.517 977.768 252.566 976.092 249.214C974.416 245.782 972.021 243.108 968.908 241.192C965.875 239.276 962.363 238.318 958.372 238.318C954.54 238.318 951.068 239.276 947.955 241.192C944.922 243.108 942.527 245.782 940.771 249.214C939.095 252.566 938.257 256.517 938.257 261.067C938.257 265.617 939.095 269.608 940.771 273.04C942.527 276.393 944.922 279.027 947.955 280.943C951.068 282.778 954.54 283.696 958.372 283.696ZM1006.73 291V231.015H1016.79V291H1006.73ZM1011.76 218.084C1009.77 218.084 1008.09 217.445 1006.73 216.168C1005.46 214.811 1004.82 213.135 1004.82 211.139C1004.82 209.144 1005.46 207.547 1006.73 206.35C1008.09 205.073 1009.77 204.434 1011.76 204.434C1013.68 204.434 1015.32 205.073 1016.67 206.35C1018.03 207.547 1018.71 209.144 1018.71 211.139C1018.71 213.135 1018.03 214.811 1016.67 216.168C1015.32 217.445 1013.68 218.084 1011.76 218.084ZM1034.3 291V231.015H1043.4L1044 241.671C1045.92 237.919 1048.67 234.966 1052.26 232.811C1055.86 230.656 1059.93 229.578 1064.48 229.578C1069.11 229.578 1073.14 230.536 1076.57 232.451C1080 234.287 1082.68 237.121 1084.59 240.952C1086.51 244.784 1087.46 249.613 1087.46 255.44V291H1077.41V256.517C1077.41 250.451 1076.09 245.901 1073.46 242.868C1070.82 239.755 1067.07 238.199 1062.2 238.199C1058.77 238.199 1055.7 239.037 1052.98 240.713C1050.35 242.389 1048.23 244.784 1046.64 247.897C1045.12 251.01 1044.36 254.841 1044.36 259.391V291H1034.3ZM1126.77 318.778C1121.34 318.778 1116.55 318.059 1112.4 316.622C1108.25 315.266 1104.97 313.15 1102.58 310.277C1100.26 307.403 1099.11 303.851 1099.11 299.621C1099.11 297.865 1099.47 295.949 1100.18 293.874C1100.98 291.798 1102.3 289.763 1104.14 287.767C1106.05 285.772 1108.73 283.976 1112.16 282.379L1119.1 286.45C1114.95 288.206 1112.2 290.202 1110.84 292.437C1109.56 294.672 1108.93 296.747 1108.93 298.663C1108.93 301.297 1109.68 303.492 1111.2 305.248C1112.8 307.004 1114.91 308.321 1117.55 309.199C1120.26 310.077 1123.33 310.516 1126.77 310.516C1130.12 310.516 1133.03 309.997 1135.51 308.96C1137.98 308.002 1139.9 306.645 1141.25 304.889C1142.61 303.133 1143.29 301.097 1143.29 298.783C1143.29 296.069 1142.25 293.754 1140.17 291.838C1138.1 290.002 1134.19 288.925 1128.44 288.605C1123.73 288.286 1119.78 287.847 1116.59 287.288C1113.47 286.73 1110.84 286.091 1108.69 285.373C1106.61 284.574 1104.85 283.696 1103.42 282.739C1102.06 281.781 1100.82 280.783 1099.71 279.745V276.991L1111.44 265.378L1120.06 268.491L1108.09 279.386L1109.64 275.195C1110.52 275.834 1111.36 276.433 1112.16 276.991C1112.96 277.55 1114.03 278.029 1115.39 278.428C1116.83 278.827 1118.74 279.187 1121.14 279.506C1123.53 279.825 1126.73 280.144 1130.72 280.464C1136.14 280.863 1140.49 281.821 1143.77 283.337C1147.12 284.854 1149.51 286.889 1150.95 289.443C1152.47 291.998 1153.23 294.991 1153.23 298.423C1153.23 301.776 1152.27 305.009 1150.35 308.122C1148.52 311.235 1145.64 313.789 1141.73 315.784C1137.82 317.78 1132.83 318.778 1126.77 318.778ZM1126.65 272.202C1121.62 272.202 1117.31 271.244 1113.71 269.329C1110.2 267.413 1107.53 264.859 1105.69 261.666C1103.86 258.473 1102.94 254.881 1102.94 250.89C1102.94 246.979 1103.86 243.427 1105.69 240.234C1107.61 237.041 1110.32 234.487 1113.83 232.571C1117.35 230.576 1121.62 229.578 1126.65 229.578C1131.67 229.578 1135.94 230.576 1139.46 232.571C1142.97 234.487 1145.64 237.041 1147.48 240.234C1149.31 243.427 1150.23 246.979 1150.23 250.89C1150.23 254.881 1149.31 258.473 1147.48 261.666C1145.64 264.859 1142.97 267.413 1139.46 269.329C1135.94 271.244 1131.67 272.202 1126.65 272.202ZM1126.65 263.941C1130.88 263.941 1134.23 262.823 1136.7 260.588C1139.26 258.353 1140.53 255.121 1140.53 250.89C1140.53 246.739 1139.26 243.547 1136.7 241.312C1134.23 239.077 1130.88 237.959 1126.65 237.959C1122.41 237.959 1118.98 239.077 1116.35 241.312C1113.79 243.547 1112.52 246.739 1112.52 250.89C1112.52 255.121 1113.79 258.353 1116.35 260.588C1118.9 262.823 1122.34 263.941 1126.65 263.941ZM1136.34 239.516L1133.35 231.015H1158.01V238.558L1136.34 239.516Z" fill="white"/>
<path d="M162.963 202.095C163.186 202.095 163.41 202.095 163.641 202.094C164.261 202.094 164.88 202.094 165.5 202.094C166.175 202.095 166.85 202.094 167.525 202.093C168.707 202.092 169.889 202.092 171.071 202.092C172.829 202.093 174.587 202.092 176.345 202.091C179.668 202.089 182.991 202.089 186.313 202.089C188.879 202.089 191.445 202.088 194.011 202.088C194.75 202.087 195.488 202.087 196.227 202.087C196.502 202.087 196.502 202.087 196.783 202.087C201.948 202.086 207.113 202.085 212.277 202.085C212.472 202.085 212.667 202.085 212.867 202.085C213.854 202.085 214.841 202.085 215.828 202.085C216.122 202.085 216.122 202.085 216.422 202.085C216.818 202.085 217.215 202.085 217.611 202.085C223.778 202.086 229.945 202.084 236.112 202.082C243.041 202.079 249.97 202.078 256.899 202.078C257.638 202.078 258.376 202.078 259.115 202.078C259.388 202.078 259.388 202.078 259.667 202.078C262.594 202.078 265.521 202.077 268.449 202.075C271.391 202.074 274.333 202.074 277.274 202.075C279.022 202.075 280.77 202.075 282.517 202.073C283.685 202.072 284.853 202.073 286.021 202.074C286.686 202.075 287.351 202.075 288.016 202.073C288.734 202.072 289.451 202.073 290.169 202.074C290.374 202.074 290.578 202.073 290.789 202.072C293.627 202.084 296.522 202.425 298.628 204.517C299.779 205.868 299.976 207.149 299.886 208.874C299.719 210.882 298.577 212.023 297.212 213.393C296.976 213.633 296.741 213.873 296.506 214.113C296.073 214.553 295.638 214.992 295.204 215.431C295.117 215.519 295.03 215.607 294.941 215.697C294.693 215.948 294.443 216.198 294.193 216.448C294.047 216.594 293.901 216.741 293.751 216.892C293.391 217.209 291.794 218.877 293.043 217.209C292.998 217.313 292.953 217.417 292.907 217.524C292.678 217.935 292.465 218.132 292.099 218.424C291.193 219.189 290.416 220.063 289.627 220.944C289.419 221.173 289.207 221.397 288.994 221.621C285.456 225.369 283.812 229.617 283.813 234.752C283.812 235.02 283.811 235.288 283.811 235.556C283.809 236.292 283.808 237.027 283.808 237.762C283.807 238.556 283.805 239.349 283.804 240.143C283.801 242.059 283.799 243.974 283.797 245.89C283.796 246.793 283.796 247.696 283.795 248.599C283.792 251.603 283.789 254.606 283.788 257.61C283.788 258.389 283.787 259.167 283.787 259.946C283.787 260.14 283.787 260.333 283.787 260.533C283.785 263.667 283.781 266.801 283.775 269.936C283.769 273.157 283.766 276.378 283.766 279.599C283.765 281.406 283.764 283.214 283.759 285.021C283.756 286.56 283.754 288.099 283.756 289.639C283.757 290.423 283.756 291.208 283.753 291.992C283.75 292.712 283.75 293.432 283.753 294.152C283.753 294.411 283.752 294.669 283.75 294.928C283.733 297.212 284.07 299.507 285.162 301.547C285.221 301.66 285.28 301.773 285.34 301.889C286.488 304.023 288.078 305.885 290.091 307.239C289.502 307.867 288.848 308.366 288.159 308.876C288.037 308.966 287.915 309.057 287.79 309.15C286.765 309.911 285.73 310.658 284.694 311.402C283.738 312.089 282.788 312.784 281.841 313.483C280.774 314.271 279.704 315.051 278.628 315.825C276.358 317.459 274.108 319.114 271.887 320.812C270.802 321.641 269.713 322.458 268.597 323.245C266.597 324.657 264.631 326.118 262.696 327.618C262.267 327.95 261.832 328.276 261.396 328.599C261.271 328.693 261.146 328.786 261.016 328.882C260.772 329.063 260.528 329.243 260.283 329.423C259.804 329.779 259.364 330.121 258.942 330.544C258.654 330.83 258.654 330.83 258.307 330.83C258.307 296.541 258.307 262.252 258.307 226.923C251.83 226.923 245.353 226.923 238.681 226.923C238.682 228.972 238.682 228.972 238.684 231.061C238.692 240.081 238.698 249.1 238.703 258.119C238.703 258.273 238.703 258.427 238.703 258.586C238.704 261.932 238.706 265.277 238.707 268.623C238.708 270.264 238.709 271.905 238.709 273.546C238.709 273.709 238.709 273.872 238.709 274.041C238.712 279.331 238.716 284.622 238.72 289.913C238.725 295.35 238.728 300.788 238.73 306.226C238.73 306.994 238.73 307.763 238.73 308.531C238.73 308.682 238.73 308.833 238.73 308.989C238.731 311.422 238.733 313.854 238.736 316.287C238.739 318.733 238.74 321.18 238.74 323.626C238.739 325.079 238.74 326.532 238.744 327.985C238.746 329.071 238.745 330.157 238.744 331.243C238.743 331.681 238.744 332.12 238.746 332.558C238.762 337.099 238.221 340.882 234.979 344.317C232.589 346.61 229.449 347.762 226.157 347.717C222.832 347.596 219.917 346.017 217.643 343.645C214.475 339.923 214.285 335.334 214.302 330.682C214.302 330.233 214.302 329.784 214.301 329.334C214.3 328.363 214.301 327.391 214.303 326.419C214.306 324.974 214.306 323.529 214.306 322.084C214.305 319.653 214.307 317.222 214.31 314.79C214.313 312.385 214.315 309.979 214.316 307.573C214.316 307.424 214.316 307.274 214.316 307.119C214.316 306.358 214.316 305.597 214.316 304.836C214.317 299.452 214.321 294.069 214.326 288.685C214.33 283.456 214.334 278.227 214.336 272.998C214.336 272.756 214.336 272.756 214.337 272.51C214.337 270.89 214.338 269.27 214.339 267.65C214.34 264.35 214.341 261.05 214.343 257.75C214.343 257.598 214.343 257.447 214.343 257.29C214.348 247.168 214.356 237.046 214.365 226.923C208.003 226.923 201.641 226.923 195.086 226.923C195.086 261.442 195.086 295.96 195.086 331.524C194.628 331.181 194.169 330.837 193.697 330.483C193.184 330.102 192.67 329.723 192.155 329.345C192.012 329.239 191.869 329.134 191.721 329.025C190.896 328.418 190.067 327.817 189.235 327.221C187.802 326.194 186.394 325.139 184.994 324.068C183.075 322.602 181.129 321.172 179.166 319.765C177.71 318.722 176.28 317.648 174.858 316.559C173.936 315.854 173.005 315.168 172.054 314.502C170.941 313.715 169.863 312.881 168.781 312.053C168.007 311.461 167.231 310.874 166.439 310.307C165.307 309.495 163.925 308.33 162.834 307.465C163.268 307.085 163.672 306.878 164.203 306.501C165.005 305.897 165.634 305.249 166.255 304.463C166.427 304.246 166.427 304.246 166.602 304.024C168.407 301.648 169.573 298.887 169.578 295.871C169.579 295.532 169.579 295.532 169.58 295.185C169.58 294.936 169.58 294.686 169.58 294.436C169.581 294.169 169.582 293.903 169.582 293.637C169.584 292.905 169.585 292.173 169.585 291.442C169.586 290.652 169.587 289.863 169.589 289.074C169.592 287.167 169.594 285.261 169.596 283.355C169.596 282.456 169.597 281.558 169.598 280.659C169.601 277.671 169.604 274.683 169.605 271.695C169.605 270.92 169.606 270.144 169.606 269.369C169.606 269.08 169.606 269.08 169.606 268.785C169.608 265.667 169.612 262.548 169.618 259.43C169.624 256.225 169.627 253.021 169.627 249.816C169.628 248.018 169.629 246.22 169.634 244.422C169.637 242.89 169.639 241.359 169.637 239.827C169.636 239.046 169.637 238.265 169.64 237.485C169.643 236.768 169.643 236.051 169.64 235.335C169.64 235.077 169.64 234.82 169.643 234.563C169.681 229.464 167.442 225.342 164.061 221.653C163.834 221.403 163.609 221.152 163.388 220.896C162.565 219.939 161.69 219.042 160.795 218.152C160.654 218.012 160.514 217.871 160.37 217.726C159.626 216.984 158.868 216.272 158.072 215.588C155.957 213.74 153.591 211.558 153.367 208.588C153.339 206.826 153.635 205.583 154.78 204.212C156.925 202.066 160.126 202.09 162.963 202.095Z" fill="url(#paint0_linear_2015_8)"/>
<path d="M150.697 154.045C150.92 154.045 151.143 154.044 151.373 154.043C151.619 154.044 151.866 154.044 152.112 154.044C152.376 154.044 152.64 154.044 152.903 154.043C153.63 154.042 154.357 154.042 155.084 154.043C155.874 154.043 156.664 154.042 157.454 154.041C159.023 154.04 160.591 154.04 162.159 154.04C164.037 154.039 165.914 154.038 167.792 154.037C172.331 154.034 176.869 154.033 181.408 154.032C183.555 154.032 185.701 154.031 187.848 154.031C195.194 154.028 202.54 154.027 209.886 154.026C210.347 154.026 210.809 154.026 211.27 154.026C211.732 154.026 212.195 154.026 212.657 154.026C213.468 154.026 214.28 154.026 215.091 154.026C215.324 154.026 215.556 154.026 215.788 154.026C223.247 154.025 230.706 154.022 238.165 154.018C246.165 154.014 254.165 154.011 262.165 154.011C263.03 154.011 263.895 154.011 264.76 154.011C264.973 154.011 265.186 154.011 265.406 154.011C268.837 154.011 272.267 154.009 275.698 154.006C279.145 154.004 282.592 154.003 286.039 154.005C288.088 154.006 290.137 154.005 292.185 154.002C293.553 154 294.922 154.001 296.29 154.002C297.069 154.003 297.849 154.003 298.629 154.001C299.339 153.999 300.049 154 300.759 154.002C301.013 154.002 301.268 154.002 301.523 154.001C305.955 153.977 310.037 155.876 313.21 158.924C314.034 159.754 314.68 160.696 315.275 161.7C315.337 161.806 315.4 161.911 315.465 162.02C317.44 165.441 318.01 169.592 317.019 173.439C316.229 175.955 315.259 178.226 313.538 180.261C313.424 180.4 313.31 180.539 313.193 180.682C312.162 181.89 311.006 182.817 309.717 183.73C309.512 183.877 309.512 183.877 309.302 184.028C308.371 184.639 307.369 185.032 306.33 185.421C306.194 185.472 306.058 185.523 305.918 185.576C304.062 186.242 302.328 186.383 300.362 186.377C300.102 186.377 299.841 186.378 299.58 186.379C298.865 186.38 298.15 186.38 297.434 186.379C296.656 186.378 295.877 186.38 295.099 186.381C293.735 186.383 292.37 186.383 291.006 186.383C288.977 186.382 286.948 186.384 284.919 186.385C281.085 186.389 277.25 186.39 273.416 186.39C270.454 186.39 267.493 186.391 264.532 186.392C263.679 186.392 262.827 186.393 261.975 186.393C261.657 186.393 261.657 186.393 261.333 186.393C255.372 186.395 249.411 186.397 243.45 186.397C243.226 186.397 243.001 186.397 242.769 186.397C241.63 186.396 240.491 186.396 239.352 186.396C239.125 186.396 238.899 186.396 238.666 186.396C238.209 186.396 237.751 186.396 237.294 186.396C230.176 186.396 223.059 186.399 215.941 186.403C207.945 186.409 199.949 186.412 191.953 186.411C191.1 186.411 190.247 186.411 189.395 186.411C189.185 186.411 188.975 186.411 188.758 186.411C185.38 186.411 182.002 186.414 178.624 186.417C175.228 186.42 171.832 186.42 168.437 186.418C166.42 186.416 164.403 186.417 162.386 186.42C161.038 186.422 159.69 186.422 158.342 186.419C157.574 186.418 156.807 186.418 156.039 186.421C149.983 186.441 145.011 185.521 140.54 181.124C137.552 177.865 135.857 173.651 136.01 169.229C136.128 167.214 136.367 165.094 137.25 163.261C137.297 163.16 137.345 163.06 137.394 162.956C138.099 161.492 138.863 160.249 140.029 159.098C140.172 158.947 140.315 158.797 140.463 158.642C140.606 158.506 140.749 158.37 140.897 158.23C140.996 158.136 141.095 158.042 141.198 157.945C143.687 155.667 147.301 154.047 150.697 154.045Z" fill="url(#paint1_linear_2015_8)"/>
</g>
<rect x="0.5" y="0.5" width="1324" height="500" rx="29.5" stroke="url(#paint2_linear_2015_8)"/>
<defs>
<filter id="filter0_f_2015_8" x="662.5" y="-2.5" width="1604" height="1540" filterUnits="userSpaceOnUse" color-interpolation-filters="sRGB">
<feFlood flood-opacity="0" result="BackgroundImageFix"/>
<feBlend mode="normal" in="SourceGraphic" in2="BackgroundImageFix" result="shape"/>
<feGaussianBlur stdDeviation="251.75" result="effect1_foregroundBlur_2015_8"/>
</filter>
<filter id="filter1_f_2015_8" x="-592.5" y="-992.5" width="1604" height="1540" filterUnits="userSpaceOnUse" color-interpolation-filters="sRGB">
<feFlood flood-opacity="0" result="BackgroundImageFix"/>
<feBlend mode="normal" in="SourceGraphic" in2="BackgroundImageFix" result="shape"/>
<feGaussianBlur stdDeviation="251.75" result="effect1_foregroundBlur_2015_8"/>
</filter>
<linearGradient id="paint0_linear_2015_8" x1="226.748" y1="154" x2="226.748" y2="347.718" gradientUnits="userSpaceOnUse">
<stop stop-color="#00E49F"/>
<stop offset="1" stop-color="#006941"/>
</linearGradient>
<linearGradient id="paint1_linear_2015_8" x1="226.748" y1="154" x2="226.748" y2="347.718" gradientUnits="userSpaceOnUse">
<stop stop-color="#00E49F"/>
<stop offset="1" stop-color="#006941"/>
</linearGradient>
<linearGradient id="paint2_linear_2015_8" x1="705.726" y1="180.649" x2="669.639" y2="-1.41506" gradientUnits="userSpaceOnUse">
<stop stop-opacity="0"/>
<stop offset="1" stop-color="#5ACC93"/>
</linearGradient>
<clipPath id="clip0_2015_8">
<rect width="1325" height="501" rx="30" fill="white"/>
</clipPath>
</defs>
</svg>
