<svg width="1390" height="446" viewBox="0 0 1390 446" fill="none" xmlns="http://www.w3.org/2000/svg">
<g clip-path="url(#clip0_13_217)">
<rect width="1388.93" height="445.691" transform="translate(0.417969)" fill="black"/>
<g filter="url(#filter0_f_13_217)">
<circle cx="1143.07" cy="719.342" r="352.286" fill="#4C00FF"/>
</g>
<path d="M452.492 262.033V191.05H425.436V183.163H488.531V191.05H461.475V262.033H452.492ZM488.556 262.033V206.167H496.772V220.408H497.32V262.033H488.556ZM497.32 232.895L495.896 219.641C497.21 214.894 499.547 211.279 502.906 208.796C506.265 206.313 510.136 205.072 514.518 205.072C516.343 205.072 517.585 205.218 518.242 205.51V213.945C517.877 213.799 517.366 213.726 516.708 213.726C516.051 213.652 515.248 213.616 514.298 213.616C508.748 213.616 504.513 215.296 501.592 218.655C498.744 221.941 497.32 226.688 497.32 232.895ZM562.316 262.033C562.024 260.792 561.805 259.368 561.659 257.761C561.586 256.154 561.549 254.11 561.549 251.627H561.002V224.899C561.002 220.663 560.016 217.559 558.044 215.588C556.145 213.543 553.042 212.521 548.733 212.521C544.497 212.521 541.102 213.397 538.546 215.15C536.063 216.829 534.675 219.239 534.383 222.379H525.948C526.313 216.975 528.577 212.74 532.74 209.672C536.902 206.605 542.343 205.072 549.062 205.072C555.999 205.072 561.148 206.715 564.507 210.001C567.866 213.287 569.546 218.217 569.546 224.789V251.627C569.546 253.233 569.655 254.913 569.874 256.666C570.093 258.345 570.386 260.134 570.751 262.033H562.316ZM543.146 263.129C537.377 263.129 532.776 261.741 529.344 258.966C525.985 256.118 524.305 252.248 524.305 247.355C524.305 242.462 525.985 238.664 529.344 235.962C532.703 233.26 537.596 231.362 544.023 230.266L563.521 226.98V234.21L545.337 237.058C541.248 237.715 538.144 238.81 536.026 240.344C533.908 241.878 532.849 244.105 532.849 247.026C532.849 249.874 533.799 252.028 535.698 253.489C537.669 254.95 540.554 255.68 544.351 255.68C549.244 255.68 553.224 254.584 556.291 252.394C559.431 250.13 561.002 247.209 561.002 243.63L562.426 251.408C561.257 255.132 558.957 258.017 555.524 260.061C552.165 262.106 548.039 263.129 543.146 263.129ZM627.077 262.033V248.998L628.173 249.326C626.785 253.562 624.229 256.921 620.505 259.404C616.853 261.887 612.472 263.129 607.36 263.129C602.321 263.129 597.903 261.924 594.105 259.514C590.381 257.104 587.46 253.745 585.342 249.436C583.297 245.127 582.275 240.088 582.275 234.319C582.275 228.477 583.334 223.365 585.451 218.983C587.569 214.602 590.527 211.206 594.324 208.796C598.122 206.386 602.576 205.181 607.688 205.181C612.946 205.181 617.364 206.459 620.943 209.015C624.521 211.571 626.968 215.186 628.282 219.86L626.529 220.079V183.163H635.293V262.033H627.077ZM609.003 255.461C614.626 255.461 619.008 253.562 622.148 249.765C625.361 245.894 626.968 240.636 626.968 233.991C626.968 227.491 625.361 222.343 622.148 218.545C618.935 214.748 614.553 212.849 609.003 212.849C603.453 212.849 599.108 214.748 595.967 218.545C592.827 222.343 591.257 227.601 591.257 234.319C591.257 240.892 592.827 246.077 595.967 249.874C599.108 253.599 603.453 255.461 609.003 255.461ZM652.868 262.033V206.167H661.631V262.033H652.868ZM652.211 193.46V183.163H662.289V193.46H652.211ZM679.184 262.033V206.167H687.399V219.312H687.947V262.033H679.184ZM719.166 262.033V225.446C719.166 221.211 718.107 218.034 715.99 215.916C713.872 213.799 710.732 212.74 706.569 212.74C702.918 212.74 699.668 213.543 696.82 215.15C694.045 216.756 691.854 218.983 690.247 221.832C688.714 224.68 687.947 228.002 687.947 231.8L686.523 218.545C688.422 214.383 691.306 211.097 695.177 208.687C699.12 206.277 703.575 205.072 708.541 205.072C714.383 205.072 719.057 206.751 722.562 210.111C726.14 213.397 727.93 217.742 727.93 223.146V262.033H719.166ZM766.996 285.585C760.35 285.585 754.8 284.014 750.345 280.874C745.964 277.807 743.298 273.718 742.349 268.606H750.674C751.477 271.527 753.266 273.827 756.041 275.507C758.89 277.259 762.723 278.136 767.543 278.136C773.239 278.136 777.548 276.566 780.469 273.425C783.39 270.358 784.851 265.831 784.851 259.842V247.902L785.946 248.121C784.705 252.357 782.222 255.753 778.497 258.309C774.773 260.792 770.355 262.033 765.243 262.033C760.35 262.033 756.041 260.865 752.317 258.528C748.593 256.118 745.708 252.795 743.663 248.56C741.619 244.324 740.596 239.395 740.596 233.772C740.596 228.075 741.655 223.073 743.773 218.764C745.891 214.456 748.848 211.133 752.646 208.796C756.516 206.386 761.007 205.181 766.119 205.181C771.377 205.181 775.759 206.459 779.264 209.015C782.843 211.571 785.216 215.223 786.384 219.969L785.399 220.079V206.167H793.614V259.842C793.614 267.802 791.241 274.083 786.494 278.683C781.747 283.284 775.248 285.585 766.996 285.585ZM767.434 254.475C772.911 254.475 777.256 252.576 780.469 248.779C783.682 244.981 785.289 239.833 785.289 233.333C785.289 226.98 783.682 221.978 780.469 218.326C777.256 214.602 772.911 212.74 767.434 212.74C761.884 212.74 757.502 214.602 754.289 218.326C751.149 222.051 749.579 227.163 749.579 233.662C749.579 240.015 751.185 245.091 754.398 248.888C757.612 252.613 761.957 254.475 767.434 254.475ZM809.218 262.033V183.163H823.458V262.033H809.218ZM860.812 262.033V183.163H875.052V262.033H860.812ZM816.009 215.369H867.275V226.542H816.009V215.369ZM907.214 263.129C903.344 263.129 899.985 262.325 897.137 260.719C894.362 259.039 892.207 256.775 890.674 253.927C889.213 251.079 888.483 247.866 888.483 244.288V206.167H902.285V241.439C902.285 244.872 903.125 247.464 904.804 249.217C906.557 250.97 909.004 251.846 912.144 251.846C914.992 251.846 917.475 251.189 919.593 249.874C921.783 248.56 923.499 246.734 924.741 244.397C926.055 241.987 926.713 239.285 926.713 236.291L928.137 249.655C926.311 253.745 923.573 257.031 919.921 259.514C916.343 261.924 912.107 263.129 907.214 263.129ZM927.151 262.033V248.888H926.713V206.167H940.624V262.033H927.151ZM955.25 262.033V206.167H968.723V219.312H969.052V262.033H955.25ZM994.466 262.033V226.761C994.466 223.329 993.589 220.736 991.837 218.983C990.084 217.231 987.528 216.354 984.169 216.354C981.248 216.354 978.619 217.012 976.282 218.326C974.018 219.641 972.229 221.466 970.914 223.803C969.673 226.14 969.052 228.842 969.052 231.909L967.628 218.545C969.527 214.456 972.302 211.206 975.953 208.796C979.605 206.313 983.986 205.072 989.098 205.072C995.159 205.072 999.87 206.788 1003.23 210.22C1006.66 213.652 1008.38 218.217 1008.38 223.913V262.033H994.466ZM1045.37 263.129C1038.51 263.129 1033.43 261.522 1030.15 258.309C1026.94 255.023 1025.33 250.13 1025.33 243.63V193.46L1039.24 188.312V243.959C1039.24 246.661 1039.97 248.669 1041.43 249.984C1042.89 251.298 1045.19 251.955 1048.33 251.955C1049.57 251.955 1050.67 251.882 1051.62 251.736C1052.64 251.517 1053.59 251.262 1054.47 250.97V261.705C1053.59 262.143 1052.35 262.471 1050.74 262.69C1049.14 262.983 1047.35 263.129 1045.37 263.129ZM1014.59 217.012V206.167H1054.47V217.012H1014.59ZM1088.16 263.129C1082.25 263.129 1077.06 261.887 1072.61 259.404C1068.23 256.921 1064.8 253.489 1062.31 249.107C1059.9 244.726 1058.7 239.687 1058.7 233.991C1058.7 228.294 1059.9 223.292 1062.31 218.983C1064.8 214.602 1068.23 211.206 1072.61 208.796C1076.99 206.313 1082.1 205.072 1087.95 205.072C1093.5 205.072 1098.32 206.24 1102.4 208.577C1106.49 210.841 1109.67 214.054 1111.93 218.217C1114.2 222.379 1115.33 227.236 1115.33 232.786C1115.33 233.808 1115.29 234.757 1115.22 235.634C1115.15 236.51 1115.04 237.386 1114.89 238.263H1067.24V228.623H1104.27L1101.42 231.252C1101.42 225.994 1100.21 222.051 1097.8 219.422C1095.39 216.793 1092.03 215.478 1087.73 215.478C1083.05 215.478 1079.33 217.085 1076.55 220.298C1073.85 223.511 1072.5 228.148 1072.5 234.21C1072.5 240.198 1073.85 244.799 1076.55 248.012C1079.33 251.152 1083.24 252.722 1088.27 252.722C1091.2 252.722 1093.75 252.174 1095.94 251.079C1098.13 249.984 1099.74 248.304 1100.76 246.04H1113.8C1111.97 251.298 1108.87 255.461 1104.49 258.528C1100.18 261.595 1094.74 263.129 1088.16 263.129ZM1125.66 262.033V206.167H1139.13V219.641H1139.46V262.033H1125.66ZM1139.46 232.895L1138.04 219.641C1139.35 214.894 1141.58 211.279 1144.72 208.796C1147.86 206.313 1151.62 205.072 1156 205.072C1157.54 205.072 1158.63 205.218 1159.29 205.51V218.545C1158.92 218.399 1158.41 218.326 1157.75 218.326C1157.1 218.253 1156.29 218.217 1155.34 218.217C1150.01 218.217 1146.03 219.385 1143.4 221.722C1140.78 224.059 1139.46 227.783 1139.46 232.895ZM1188.74 263.129C1181 263.129 1174.83 261.522 1170.23 258.309C1165.63 255.023 1163.11 250.495 1162.67 244.726H1175.27C1175.63 247.574 1176.98 249.728 1179.32 251.189C1181.66 252.649 1184.8 253.379 1188.74 253.379C1192.32 253.379 1194.98 252.832 1196.74 251.736C1198.56 250.568 1199.47 248.925 1199.47 246.807C1199.47 245.273 1198.96 244.032 1197.94 243.083C1196.92 242.06 1194.98 241.22 1192.14 240.563L1183.15 238.482C1177.02 237.167 1172.45 235.123 1169.46 232.348C1166.54 229.499 1165.08 225.958 1165.08 221.722C1165.08 216.537 1167.05 212.484 1170.99 209.563C1175.01 206.569 1180.52 205.072 1187.53 205.072C1194.47 205.072 1200.02 206.569 1204.18 209.563C1208.42 212.484 1210.76 216.537 1211.2 221.722H1198.6C1198.23 219.458 1197.06 217.742 1195.09 216.574C1193.19 215.405 1190.57 214.821 1187.21 214.821C1184.07 214.821 1181.69 215.332 1180.09 216.354C1178.48 217.304 1177.68 218.728 1177.68 220.627C1177.68 222.087 1178.3 223.329 1179.54 224.351C1180.78 225.3 1182.86 226.14 1185.78 226.87L1195.42 229.061C1200.9 230.303 1205.02 232.457 1207.8 235.524C1210.65 238.591 1212.07 242.206 1212.07 246.369C1212.07 251.7 1210.03 255.826 1205.94 258.747C1201.85 261.668 1196.12 263.129 1188.74 263.129Z" fill="white"/>
<path fill-rule="evenodd" clip-rule="evenodd" d="M193.603 164.895L175.68 133.821C178.873 150.304 182.096 166.761 185.319 183.245H240.107V269.623L225.434 263.064L225.944 207.193L209.574 271.093L258.453 300.752V164.895H193.603ZM378.317 164.895L396.24 133.821C393.048 150.304 389.824 166.761 386.628 183.245H331.813V269.623L346.514 263.064L345.977 207.193L362.346 271.093L313.467 300.752V164.895H378.317ZM378.317 128.194L367.745 146.543H295.148V216.381H276.802V146.543H204.205L193.603 128.194H378.32H378.317ZM295.148 234.703V311.893L285.962 317.462L276.802 311.893V234.703H295.148Z" fill="url(#paint0_linear_13_217)"/>
</g>
<defs>
<filter id="filter0_f_13_217" x="203.681" y="-220.049" width="1878.78" height="1878.78" filterUnits="userSpaceOnUse" color-interpolation-filters="sRGB">
<feFlood flood-opacity="0" result="BackgroundImageFix"/>
<feBlend mode="normal" in="SourceGraphic" in2="BackgroundImageFix" result="shape"/>
<feGaussianBlur stdDeviation="293.552" result="effect1_foregroundBlur_13_217"/>
</filter>
<linearGradient id="paint0_linear_13_217" x1="285.96" y1="128.194" x2="285.96" y2="317.462" gradientUnits="userSpaceOnUse">
<stop stop-color="#540CFF"/>
<stop offset="1" stop-color="#C0B8FF"/>
</linearGradient>
<clipPath id="clip0_13_217">
<rect width="1388.93" height="445.691" fill="white" transform="translate(0.417969)"/>
</clipPath>
</defs>
</svg>
